<?xml version="1.0" encoding="UTF-8"?>
<svg id="Layer_1" xmlns="http://www.w3.org/2000/svg" width="40.64mm" height="128.5mm" version="1.1" viewBox="0 0 115.2 364.25">
  <!-- Generator: Adobe Illustrator 29.5.0, SVG Export Plug-In . SVG Version: 2.1.0 Build 137)  -->
  <g id="background">
    <rect y="0" width="115.2" height="364.25" fill="#b377db"/>
  </g>
  <g id="components">
    <circle cx="57.6" cy="185.34" r="27.16" fill="lime"/>
    <ellipse cx="57.6" cy="287.42" rx="28.44" ry="27.55" fill="blue"/>
  </g>
  <g>
    <path d="M20.54,24.33c0-.42.05-.86.14-1.3l.28-1.4c.19-.96.15-1.61-.12-1.93-.27-.32-.87-.48-1.8-.48h-3.26l-1.25,5.93h-3.09l3.21-15.11h7.41c1.05.02,1.84.15,2.36.39s.93.59,1.23,1.06c.25.38.42.81.51,1.27.09.46.08.99-.05,1.59-.16.72-.49,1.42-1,2.12-.51.69-1.21,1.18-2.11,1.47.64.28,1.04.68,1.23,1.19.18.52.16,1.3-.07,2.36l-.22,1.02c-.14.69-.22,1.16-.22,1.4,0,.39.13.68.39.86l-.07.38h-3.48c-.03-.33-.04-.6-.04-.81ZM20.84,12.65h-3.67l-.86,4.06h3.58c.71,0,1.26-.08,1.65-.25.69-.29,1.13-.85,1.31-1.7.19-.92.02-1.53-.52-1.85-.31-.18-.8-.27-1.49-.27Z"/>
    <path d="M35.31,25.14h-3.07l-.15-12.68c-.05.29-.14.7-.24,1.23-.11.53-.19.94-.26,1.24l-2.16,10.22h-2.94l3.21-15.11h4.59l.22,11.88,5.26-11.88h4.54l-3.21,15.11h-2.94l2.16-10.22c.07-.29.16-.71.28-1.24.12-.53.21-.94.26-1.23l-5.55,12.68Z"/>
    <path d="M64.01,12.27c.37.75.56,1.57.56,2.44,0,.88-.08,1.71-.24,2.5-.43,2.01-1.2,3.71-2.3,5.11-1.49,1.88-3.38,2.82-5.66,2.82h-6.51l3.21-15.11h6.51c.93.01,1.68.12,2.27.33.98.35,1.71.99,2.16,1.92ZM61.07,17.43c.33-1.54.34-2.72.03-3.54-.31-.82-1.18-1.24-2.62-1.24h-2.91l-2.09,9.86h2.91c1.49,0,2.69-.73,3.59-2.2.49-.81.85-1.77,1.09-2.88Z"/>
    <path d="M71.36,22.63c.24-.18.47-.44.71-.77h2.98c-.22.66-.71,1.34-1.47,2.02-1.19,1.09-2.65,1.63-4.37,1.63-1.42,0-2.58-.46-3.47-1.37-.89-.92-1.12-2.41-.68-4.47.41-1.93,1.21-3.42,2.42-4.45,1.2-1.03,2.58-1.55,4.15-1.55.93,0,1.73.17,2.4.52.67.35,1.17.9,1.49,1.65.3.66.42,1.43.36,2.31-.03.51-.15,1.25-.37,2.21h-7.65c-.2,1.12-.01,1.91.55,2.36.34.28.8.42,1.36.42.6,0,1.13-.17,1.58-.51ZM71.12,16.08c-.68,0-1.25.21-1.71.64-.46.42-.82,1-1.06,1.72h4.54c.12-.77,0-1.36-.33-1.76-.34-.4-.82-.6-1.44-.6Z"/>
    <path d="M76.53,25.14l3.21-15.11h2.92l-3.21,15.11h-2.92Z"/>
    <path d="M88.13,18.34c.56-.07.97-.15,1.22-.26.45-.18.72-.45.8-.83.1-.46,0-.77-.28-.95-.28-.17-.73-.26-1.34-.26-.69,0-1.22.17-1.58.51-.25.25-.46.59-.63,1.03h-2.82c.27-.98.72-1.78,1.33-2.41.98-.98,2.42-1.48,4.3-1.48,1.22,0,2.26.24,3.11.73s1.13,1.4.84,2.75l-1.1,5.13c-.08.36-.16.79-.25,1.29-.06.38-.06.64,0,.78.06.14.18.25.35.34l-.08.43h-3.18c-.04-.23-.06-.44-.05-.64s.03-.42.06-.68c-.5.44-1.04.81-1.63,1.12-.71.36-1.46.54-2.26.54-1.01,0-1.79-.29-2.32-.87-.54-.58-.69-1.4-.47-2.46.29-1.37,1.04-2.37,2.22-2.98.65-.33,1.56-.57,2.72-.72l1.01-.12ZM88.18,20.19l-.68.12c-.64.11-1.11.24-1.42.4-.51.27-.82.68-.93,1.24-.11.5-.05.86.18,1.08.23.22.54.33.94.33.63,0,1.25-.18,1.86-.55s1.03-1.04,1.26-2.02l.23-1.09c-.21.12-.41.21-.62.28-.21.07-.48.14-.82.2Z"/>
    <path d="M96.82,25.63l-1.62-11.67h3.25l.69,8.24,4.06-8.24h3.11l-6.17,10.99c-1.19,2.12-2.05,3.43-2.59,3.94-.54.51-1.45.76-2.74.76-.26,0-.47,0-.62,0s-.39-.02-.7-.04l.49-2.34.37.02c.28.01.55,0,.82-.03s.5-.11.71-.24c.2-.12.41-.36.64-.73.22-.37.33-.59.32-.68Z"/>
  </g>
</svg>