<?xml version="1.0" encoding="UTF-8"?>
<svg id="Layer_1" xmlns="http://www.w3.org/2000/svg" width="182.88mm" height="128.5mm" version="1.1" viewBox="0 0 518.4 364.25">
  <!-- Generator: Adobe Illustrator 29.5.0, SVG Export Plug-In . SVG Version: 2.1.0 Build 137)  -->
  <g id="components" display="none">
    <circle cx="93.69" cy="204.03" r="54.32" fill="#f0f"/>
    <ellipse cx="357.73" cy="249.71" rx="56.89" ry="55.1" fill="lime"/>
    <circle cx="200" cy="200" r="15" fill="#ff0"/>
  </g>
  <g id="Layer_2">
    <g>
      <path d="M142.79,35.72c2.64-.54,6.42-.84,10.02-.84,5.58,0,9.18,1.02,11.7,3.3,2.04,1.8,3.18,4.56,3.18,7.68,0,5.34-3.36,8.88-7.62,10.32v.18c3.12,1.08,4.98,3.96,5.94,8.16,1.32,5.64,2.28,9.54,3.12,11.1h-5.4c-.66-1.14-1.56-4.62-2.7-9.66-1.2-5.58-3.36-7.68-8.1-7.86h-4.92v17.52h-5.22v-39.9ZM148.01,54.14h5.34c5.58,0,9.12-3.06,9.12-7.68,0-5.22-3.78-7.5-9.3-7.56-2.52,0-4.32.24-5.16.48v14.76h0Z"/>
      <path d="M209.15,57.86c-.3-5.64-.66-12.42-.6-17.46h-.18c-1.38,4.74-3.06,9.78-5.1,15.36l-7.14,19.62h-3.96l-6.54-19.26c-1.92-5.7-3.54-10.92-4.68-15.72h-.12c-.12,5.04-.42,11.82-.78,17.88l-1.08,17.34h-4.98l2.82-40.44h6.66l6.9,19.56c1.68,4.98,3.06,9.42,4.08,13.62h.18c1.02-4.08,2.46-8.52,4.26-13.62l7.2-19.56h6.66l2.52,40.44h-5.1s-1.02-17.76-1.02-17.76Z"/>
      <path d="M236.03,35.66c2.52-.42,5.82-.78,10.02-.78,5.16,0,8.94,1.2,11.34,3.36,2.22,1.92,3.54,4.86,3.54,8.46s-1.08,6.54-3.12,8.64c-2.76,2.94-7.26,4.44-12.36,4.44-1.56,0-3-.06-4.2-.36v16.2h-5.22v-39.96h0ZM241.25,55.16c1.14.3,2.58.42,4.32.42,6.3,0,10.14-3.06,10.14-8.64s-3.78-7.92-9.54-7.92c-2.28,0-4.02.18-4.92.42v15.72h0Z"/>
      <path d="M267.47,33.02h5.28v42.6h-5.28s0-42.6,0-42.6Z"/>
      <path d="M305.92,67.7c0,3,.06,5.64.24,7.92h-4.68l-.3-4.74h-.12c-1.38,2.34-4.44,5.4-9.6,5.4-4.56,0-10.02-2.52-10.02-12.72v-16.98h5.28v16.08c0,5.52,1.68,9.24,6.48,9.24,3.54,0,6-2.46,6.96-4.8.3-.78.48-1.74.48-2.7v-17.82h5.28v21.12h0Z"/>
      <path d="M339.7,46.58c-.12,2.1-.24,4.44-.24,7.98v16.86c0,6.66-1.32,10.74-4.14,13.26-2.82,2.64-6.9,3.48-10.56,3.48s-7.32-.84-9.66-2.4l1.32-4.02c1.92,1.2,4.92,2.28,8.52,2.28,5.4,0,9.36-2.82,9.36-10.14v-3.24h-.12c-1.62,2.7-4.74,4.86-9.24,4.86-7.2,0-12.36-6.12-12.36-14.16,0-9.84,6.42-15.42,13.08-15.42,5.04,0,7.8,2.64,9.06,5.04h.12l.24-4.38h4.62ZM334.25,58.04c0-.9-.06-1.68-.3-2.4-.96-3.06-3.54-5.58-7.38-5.58-5.04,0-8.64,4.26-8.64,10.98,0,5.7,2.88,10.44,8.58,10.44,3.24,0,6.18-2.04,7.32-5.4.3-.9.42-1.92.42-2.82,0,0,0-5.22,0-5.22Z"/>
      <path d="M353.75,38.42c.06,1.8-1.26,3.24-3.36,3.24-1.86,0-3.18-1.44-3.18-3.24s1.38-3.3,3.3-3.3,3.24,1.44,3.24,3.3ZM347.87,75.62v-29.04h5.28v29.04h-5.28Z"/>
      <path d="M361.91,54.44c0-3-.06-5.46-.24-7.86h4.68l.3,4.8h.12c1.44-2.76,4.8-5.46,9.6-5.46,4.02,0,10.26,2.4,10.26,12.36v17.34h-5.28v-16.74c0-4.68-1.74-8.58-6.72-8.58-3.48,0-6.18,2.46-7.08,5.4-.24.66-.36,1.56-.36,2.46v17.46h-5.28v-21.18h0Z"/>
    </g>
  </g>
</svg>