<?xml version="1.0" encoding="UTF-8" standalone="no"?>
<!-- Created with Inkscape (http://www.inkscape.org/) -->

<svg
   width="182.88mm"
   height="128.5mm"
   viewBox="0 0 182.88 128.5"
   version="1.1"
   id="svg1"
   sodipodi:docname="RMMute.svg"
   inkscape:version="1.4 (e7c3feb1, 2024-10-09)"
   xmlns:inkscape="http://www.inkscape.org/namespaces/inkscape"
   xmlns:sodipodi="http://sodipodi.sourceforge.net/DTD/sodipodi-0.dtd"
   xmlns="http://www.w3.org/2000/svg"
   xmlns:svg="http://www.w3.org/2000/svg">
  <sodipodi:namedview
     id="namedview1"
     pagecolor="#ffffff"
     bordercolor="#000000"
     borderopacity="0.25"
     inkscape:showpageshadow="2"
     inkscape:pageopacity="0.0"
     inkscape:pagecheckerboard="0"
     inkscape:deskcolor="#d1d1d1"
     inkscape:document-units="mm"
     inkscape:clip-to-page="false"
     showguides="true"
     inkscape:zoom="1"
     inkscape:cx="419.5"
     inkscape:cy="300.5"
     inkscape:window-width="1512"
     inkscape:window-height="830"
     inkscape:window-x="0"
     inkscape:window-y="38"
     inkscape:window-maximized="0"
     inkscape:current-layer="layer3" />
  <defs
     id="defs1">
    <rect
       x="-17800"
       y="42400"
       width="49400"
       height="10000"
       id="rect4" />
  </defs>
  <g
     inkscape:label="Layer 1"
     inkscape:groupmode="layer"
     id="layer1"
     style="fill:#00ff00"
     transform="translate(949.45728,-690.69478)">
    <ellipse
       style="fill:#1a1a1a;fill-opacity:1;stroke:#000000;stroke-width:0.264583;stroke-opacity:1"
       id="path9"
       cx="-927.89374"
       cy="711.59686"
       rx="21.43125"
       ry="20.769791" />
    <path
       style="font-style:italic;font-weight:500;font-size:11.2889px;font-family:'Helvetica Neue';-inkscape-font-specification:'Helvetica Neue, Medium Italic';fill:#1a1a1a;stroke:#000000;stroke-width:0.264583"
       d="m -865.06052,697.42615 q 0,0.21449 0.0903,0.36125 0.1016,0.13546 0.24835,0.22577 0.14676,0.079 0.32738,0.12418 0.18062,0.0339 0.36124,0.0339 0.47414,0 0.79023,-0.15805 0.32738,-0.15804 0.53058,-0.42897 0.21449,-0.27094 0.32737,-0.63218 0.12418,-0.37254 0.19192,-0.79023 l -0.0226,-0.0226 q -0.13547,0.13546 -0.36125,0.19191 -0.22577,0.0564 -0.44026,0.079 -0.27094,0.0226 -0.63218,0.0452 -0.34996,0.0226 -0.66605,0.12417 -0.3048,0.0903 -0.53058,0.29351 -0.21449,0.19192 -0.21449,0.55316 z m 3.8721,-0.0903 q -0.0339,0.15804 -0.079,0.3048 -0.0339,0.14676 -0.0339,0.27093 0,0.12418 0.0564,0.19191 0.0565,0.0677 0.21449,0.0677 0.11289,0 0.22578,-0.0226 0.11289,-0.0339 0.22578,-0.0452 l -0.2032,0.92569 q -0.24836,0.0564 -0.49671,0.1016 -0.24836,0.0565 -0.508,0.0565 -0.32738,0 -0.54187,-0.2032 -0.21449,-0.2032 -0.23707,-0.54187 -0.38382,0.38382 -0.90311,0.56445 -0.51929,0.18062 -1.06116,0.18062 -0.36124,0 -0.68862,-0.1016 -0.32738,-0.1016 -0.58702,-0.29351 -0.24836,-0.19191 -0.39511,-0.48542 -0.14676,-0.29352 -0.14676,-0.67734 0,-0.54187 0.2032,-0.90311 0.2032,-0.37253 0.54187,-0.6096 0.33866,-0.23707 0.77893,-0.34996 0.44027,-0.11289 0.92569,-0.14675 0.65476,-0.0452 1.28694,-0.1016 0.34995,-0.0226 0.508,-0.22578 0.16933,-0.21449 0.16933,-0.54187 0,-0.41769 -0.29351,-0.55315 -0.29351,-0.14676 -0.68862,-0.14676 -0.54187,0 -0.93698,0.19191 -0.38383,0.18062 -0.51929,0.72249 h -1.2192 q 0.1016,-0.54187 0.34995,-0.90311 0.24836,-0.37254 0.6096,-0.59831 0.36125,-0.23707 0.8128,-0.32738 0.46285,-0.1016 0.98214,-0.1016 0.79022,0 1.23049,0.15804 0.45155,0.14676 0.65475,0.36125 0.21449,0.21449 0.25965,0.45155 0.0451,0.22578 0.0451,0.38383 0,0.38382 -0.11288,0.88053 z"
       id="text9"
       aria-label="a" />
  </g>
  <g
     inkscape:groupmode="layer"
     id="layer3"
     inkscape:label="components"
     style="display:none">
    <ellipse
       id="acc0b878-9356-4555-9f39-64d69ce4b4b8"
       data-name="FmCv#Trimpot"
       cx="48.418884"
       cy="84.137497"
       style="display:inline;fill:#ff0000;stroke-width:0.264583"
       inkscape:label="vcvtest"
       rx="1.323"
       ry="1.3229166" />
    <ellipse
       style="display:inline;fill:#ff00ff;fill-opacity:1;stroke:none;stroke-width:0.989845;stroke-opacity:1"
       id="input"
       cx="110.93458"
       cy="-79.448959"
       inkscape:label="RMInput"
       inkscape:highlight-color="#00ff00"
       transform="scale(1,-1)"
       rx="7.4825001"
       ry="7.4822917" />
  </g>
</svg>
