<?xml version="1.0" encoding="UTF-8"?>
<svg xmlns="http://www.w3.org/2000/svg" width="40.64mm" height="128.5mm" version="1.1" viewBox="0 0 115.2 364.25">
  <!-- Generator: Adobe Illustrator 29.5.0, SVG Export Plug-In . SVG Version: 2.1.0 Build 137)  -->
  <g id="background">
    <rect width="115.2" height="364.25" fill="#b377db"/>
  </g>
  <g id="display">
    <g>
      <path d="M18.91,31.25c0-.48.06-.98.16-1.49l.32-1.61c.22-1.1.17-1.84-.13-2.2s-.99-.55-2.06-.55h-3.73l-1.43,6.77h-3.53l3.67-17.27h8.47c1.2.02,2.1.17,2.7.45s1.06.68,1.41,1.21c.28.44.47.92.58,1.45s.09,1.14-.05,1.82c-.18.82-.56,1.63-1.14,2.42s-1.38,1.35-2.41,1.68c.73.32,1.19.78,1.4,1.37s.18,1.49-.08,2.7l-.25,1.16c-.16.79-.25,1.32-.25,1.61,0,.45.15.77.45.98l-.08.43h-3.97c-.03-.38-.05-.69-.05-.93ZM19.26,17.91h-4.2l-.98,4.64h4.09c.81,0,1.44-.09,1.89-.28.79-.33,1.29-.98,1.5-1.95.22-1.05.02-1.75-.6-2.11-.35-.2-.92-.3-1.7-.3Z"/>
      <path d="M35.8,32.18h-3.5l-.18-14.5c-.06.33-.15.79-.28,1.4s-.22,1.08-.3,1.41l-2.47,11.68h-3.36l3.67-17.27h5.25l.25,13.58,6.01-13.58h5.19l-3.67,17.27h-3.36l2.47-11.68c.08-.34.19-.81.32-1.41s.24-1.07.3-1.4l-6.34,14.5Z"/>
      <path d="M62.46,32.18h-3.5l-.18-14.5c-.06.33-.15.79-.28,1.4s-.22,1.08-.3,1.41l-2.47,11.68h-3.36l3.67-17.27h5.25l.25,13.58,6.01-13.58h5.19l-3.67,17.27h-3.36l2.47-11.68c.08-.34.19-.81.32-1.41s.24-1.07.3-1.4l-6.34,14.5Z"/>
      <path d="M80.72,30.38s-.14.16-.3.35-.35.37-.55.52c-.62.47-1.2.79-1.73.96s-1.12.26-1.78.26c-1.89,0-3.02-.68-3.39-2.04-.2-.75-.15-1.86.16-3.32l1.63-7.7h3.42l-1.63,7.7c-.16.73-.19,1.27-.09,1.64.16.65.69.97,1.58.97,1.14,0,2.02-.46,2.64-1.38.33-.5.58-1.16.75-1.98l1.48-6.95h3.39l-2.71,12.77h-3.25l.38-1.8Z"/>
      <path d="M91.32,28.65c-.11.52-.11.85,0,.98s.5.19,1.18.19c.1,0,.21,0,.32,0s.23,0,.35-.02l-.54,2.5-1.59.06c-1.59.05-2.61-.22-3.06-.82-.29-.38-.35-.97-.19-1.77l1.68-7.86h-1.78l.5-2.38h1.78l.76-3.56h3.3l-.76,3.56h2.07l-.5,2.38h-2.07l-1.44,6.75Z"/>
      <path d="M102.32,29.31c.27-.21.54-.5.81-.88h3.41c-.25.76-.81,1.53-1.68,2.31-1.36,1.24-3.02,1.86-4.99,1.86-1.62,0-2.95-.52-3.97-1.57s-1.28-2.75-.78-5.11c.47-2.21,1.39-3.91,2.76-5.09s2.95-1.77,4.74-1.77c1.06,0,1.98.2,2.75.6s1.34,1.03,1.71,1.89c.34.76.48,1.64.41,2.64-.03.59-.17,1.43-.42,2.53h-8.74c-.23,1.28-.02,2.18.63,2.7.39.32.91.48,1.56.48.69,0,1.29-.2,1.8-.59ZM102.03,21.82c-.77,0-1.42.24-1.95.73s-.93,1.14-1.21,1.97h5.19c.13-.88,0-1.55-.38-2.01s-.94-.69-1.65-.69Z"/>
    </g>
  </g>
  <g id="components" display="none">
    <circle cx="57.6" cy="185.34" r="27.16" fill="lime"/>
    <ellipse cx="57.6" cy="287.42" rx="28.44" ry="27.55" fill="blue"/>
    <circle cx="57.6" cy="95.81" r="15" fill="#ff0"/>
  </g>
</svg>